<svg xmlns="http://www.w3.org/2000/svg" xmlns:xlink="http://www.w3.org/1999/xlink" overflow="hidden" viewBox="20 10 260 315"><defs><filter id="fx0" width="120%" height="120%" x="-10%" y="-10%" filterUnits="userSpaceOnUse" primitiveUnits="userSpaceOnUse"><feComponentTransfer color-interpolation-filters="sRGB"><feFuncR tableValues="0 0" type="discrete"/><feFuncG tableValues="0 0" type="discrete"/><feFuncB tableValues="0 0" type="discrete"/><feFuncA intercept="0" slope=".4" type="linear"/></feComponentTransfer><feGaussianBlur stdDeviation="6.66667 6.69683"/></filter><filter id="fx1" width="120%" height="120%" x="-10%" y="-10%" filterUnits="userSpaceOnUse" primitiveUnits="userSpaceOnUse"><feComponentTransfer color-interpolation-filters="sRGB"><feFuncR tableValues="0 0" type="discrete"/><feFuncG tableValues="0 0" type="discrete"/><feFuncB tableValues="0 0" type="discrete"/><feFuncA intercept="0" slope=".4" type="linear"/></feComponentTransfer><feGaussianBlur stdDeviation="6.66667 6.66667"/></filter><clipPath id="clip2"><rect width="316" height="343" x="482" y="189"/></clipPath><clipPath id="clip3"><rect width="117" height="121.045" x="-3.5" y="-3.516"/></clipPath><clipPath id="clip4"><rect width="108" height="111" x="0" y="0"/></clipPath><linearGradient id="fill5" x1="690" x2="690" y1="230.989" y2="367.713" gradientUnits="userSpaceOnUse" spreadMethod="reflect"><stop offset="0" stop-color="#61A2F9"/><stop offset=".18" stop-color="#61A2F9"/><stop offset=".91" stop-color="#3159D7"/><stop offset="1" stop-color="#3159D7"/></linearGradient><clipPath id="clip6"><rect width="124" height="150" x="-3.5" y="-3.5"/></clipPath><clipPath id="clip7"><rect width="115" height="141" x="0" y="0"/></clipPath><linearGradient id="fill8" x1="501.032" x2="692.944" y1="356.07" y2="425.92" gradientUnits="userSpaceOnUse" spreadMethod="reflect"><stop offset="0" stop-color="#C45DD5"/><stop offset=".3" stop-color="#C45DD5"/><stop offset=".76" stop-color="#A266E4"/><stop offset="1" stop-color="#A266E4"/></linearGradient><linearGradient id="fill9" x1="501.032" x2="692.944" y1="356.07" y2="425.92" gradientUnits="userSpaceOnUse" spreadMethod="reflect"><stop offset="0" stop-color="#C45DD5"/><stop offset=".3" stop-color="#C45DD5"/><stop offset=".76" stop-color="#A266E4"/><stop offset="1" stop-color="#A266E4"/></linearGradient></defs><g clip-path="url(#clip2)" transform="translate(-482 -189)"><g clip-path="url(#clip3)" filter="url(#fx0)" transform="matrix(2 0 0 1.99099 582 189)"><g clip-path="url(#clip4)" transform="matrix(1 0 0 1 0 -1.42109e-14)"><path fill="red" fill-rule="evenodd" d="M39.6258 90.4476 38.0822 75.8218C21.7024 68.1282 15.5505 50.2705 24.3416 35.9356 33.1327 21.6007 53.5379 16.2168 69.9178 23.9104 86.2976 31.604 92.4495 49.4617 83.6584 63.7966 77.1697 74.3772 63.9919 80.4518 50.3515 79.1503Z"/></g></g><path fill="url(#fill5)" fill-rule="evenodd" d="M661.815 367.713 658.789 339.164C626.671 324.147 614.609 289.289 631.846 261.308 649.084 233.327 689.094 222.818 721.211 237.836 753.329 252.853 765.391 287.711 748.154 315.692 735.431 336.344 709.592 348.202 682.846 345.661Z"/><g clip-path="url(#clip6)" filter="url(#fx1)" transform="matrix(2 0 0 2 482 250)"><g clip-path="url(#clip7)"><path fill="red" fill-rule="evenodd" d="M94.6585 90.1902C95.9608 113.854 77.6707 120.475 56.7733 120.475 35.8759 120.475 18.4236 111.705 20.42 91.1324 20.302 87.6777 22.1944 84.4484 24.8353 83.2145 29.2696 81.1425 38.3021 81.1913 56.6194 81.2092 74.9366 81.227 86.3101 81.0004 89.9183 82.6491 93.5265 84.2977 94.7335 87.4959 94.6585 90.1902Z"/><path fill="red" fill-rule="evenodd" d="M31.4901 46.5301C31.4901 32.1651 43.1352 20.5201 57.5001 20.5201 71.865 20.5201 83.5101 32.1651 83.5101 46.5301 83.5101 60.895 71.865 72.5401 57.5001 72.5401 43.1352 72.5401 31.4901 60.895 31.4901 46.5301Z"/></g></g><path fill="url(#fill8)" fill-rule="evenodd" d="M669.86 429.608C672.413 476.008 636.55 488.99 595.575 488.99 554.6 488.99 520.379 471.793 524.294 431.456 524.062 424.682 527.773 418.35 532.951 415.93 541.646 411.868 559.357 411.963 595.273 411.998 631.189 412.033 653.49 411.589 660.565 414.822 667.64 418.054 670.007 424.325 669.86 429.608Z"/><path fill="url(#fill9)" fill-rule="evenodd" d="M546 344C546 315.833 568.833 293 597 293 625.167 293 648 315.833 648 344 648 372.167 625.167 395 597 395 568.833 395 546 372.167 546 344Z"/></g></svg>