<svg xmlns="http://www.w3.org/2000/svg" xmlns:xlink="http://www.w3.org/1999/xlink" overflow="hidden" viewBox="9 8 311 271"><defs><filter id="fx0" width="120%" height="120%" x="-10%" y="-10%" filterUnits="userSpaceOnUse" primitiveUnits="userSpaceOnUse"><feComponentTransfer color-interpolation-filters="sRGB"><feFuncR tableValues="0 0" type="discrete"/><feFuncG tableValues="0 0" type="discrete"/><feFuncB tableValues="0 0" type="discrete"/><feFuncA intercept="0" slope=".4" type="linear"/></feComponentTransfer><feGaussianBlur stdDeviation="5.33333 5.33333"/></filter><filter id="fx1" width="120%" height="120%" x="-10%" y="-10%" filterUnits="userSpaceOnUse" primitiveUnits="userSpaceOnUse"><feComponentTransfer color-interpolation-filters="sRGB"><feFuncR tableValues="0 0" type="discrete"/><feFuncG tableValues="0 0" type="discrete"/><feFuncB tableValues="0 0" type="discrete"/><feFuncA intercept="0" slope=".4" type="linear"/></feComponentTransfer><feGaussianBlur stdDeviation="5.33333 5.33333"/></filter><filter id="fx2" width="120%" height="120%" x="-10%" y="-10%" filterUnits="userSpaceOnUse" primitiveUnits="userSpaceOnUse"><feComponentTransfer color-interpolation-filters="sRGB"><feFuncR tableValues="0 0" type="discrete"/><feFuncG tableValues="0 0" type="discrete"/><feFuncB tableValues="0 0" type="discrete"/><feFuncA intercept="0" slope=".4" type="linear"/></feComponentTransfer><feGaussianBlur stdDeviation="5.33333 5.33333"/></filter><filter id="fx3" width="120%" height="120%" x="-10%" y="-10%" filterUnits="userSpaceOnUse" primitiveUnits="userSpaceOnUse"><feComponentTransfer color-interpolation-filters="sRGB"><feFuncR tableValues="0 0" type="discrete"/><feFuncG tableValues="0 0" type="discrete"/><feFuncB tableValues="0 0" type="discrete"/><feFuncA intercept="0" slope=".4" type="linear"/></feComponentTransfer><feGaussianBlur stdDeviation="5.33333 5.33333"/></filter><filter id="fx4" width="120%" height="120%" x="-10%" y="-10%" filterUnits="userSpaceOnUse" primitiveUnits="userSpaceOnUse"><feComponentTransfer color-interpolation-filters="sRGB"><feFuncR tableValues="0 0" type="discrete"/><feFuncG tableValues="0 0" type="discrete"/><feFuncB tableValues="0 0" type="discrete"/><feFuncA intercept="0" slope=".522" type="linear"/></feComponentTransfer><feGaussianBlur stdDeviation="5.33333 5.33333"/></filter><clipPath id="clip5"><rect width="329" height="287" x="476" y="225"/></clipPath><linearGradient id="fill6" x1="597.476" x2="682.524" y1="209.816" y2="333.184" gradientUnits="userSpaceOnUse" spreadMethod="reflect"><stop offset="0" stop-color="#90C7F4"/><stop offset=".009" stop-color="#8FC6F3"/><stop offset=".018" stop-color="#8FC6F3"/><stop offset=".026" stop-color="#8FC6F3"/><stop offset=".035" stop-color="#8FC6F3"/><stop offset=".044" stop-color="#8FC6F3"/><stop offset=".053" stop-color="#8FC6F3"/><stop offset=".061" stop-color="#8FC6F3"/><stop offset=".07" stop-color="#8FC6F3"/><stop offset=".079" stop-color="#8FC6F3"/><stop offset=".088" stop-color="#8EC6F3"/><stop offset=".096" stop-color="#8EC6F3"/><stop offset=".105" stop-color="#8EC6F3"/><stop offset=".114" stop-color="#8EC5F3"/><stop offset=".123" stop-color="#8DC5F3"/><stop offset=".132" stop-color="#8DC5F3"/><stop offset=".14" stop-color="#8DC5F3"/><stop offset=".149" stop-color="#8CC5F3"/><stop offset=".158" stop-color="#8CC4F3"/><stop offset=".167" stop-color="#8CC4F3"/><stop offset=".175" stop-color="#8BC4F2"/><stop offset=".184" stop-color="#8BC4F2"/><stop offset=".193" stop-color="#8AC3F2"/><stop offset=".202" stop-color="#8AC3F2"/><stop offset=".211" stop-color="#89C3F2"/><stop offset=".219" stop-color="#89C3F2"/><stop offset=".228" stop-color="#88C2F2"/><stop offset=".237" stop-color="#88C2F2"/><stop offset=".246" stop-color="#87C2F1"/><stop offset=".254" stop-color="#87C1F1"/><stop offset=".263" stop-color="#86C1F1"/><stop offset=".272" stop-color="#85C1F1"/><stop offset=".281" stop-color="#85C0F1"/><stop offset=".289" stop-color="#84C0F1"/><stop offset=".298" stop-color="#84C0F1"/><stop offset=".307" stop-color="#83BFF0"/><stop offset=".316" stop-color="#82BFF0"/><stop offset=".325" stop-color="#82BEF0"/><stop offset=".333" stop-color="#81BEF0"/><stop offset=".342" stop-color="#80BEF0"/><stop offset=".351" stop-color="#7FBDF0"/><stop offset=".36" stop-color="#7FBDEF"/><stop offset=".368" stop-color="#7EBCEF"/><stop offset=".377" stop-color="#7DBCEF"/><stop offset=".386" stop-color="#7CBBEF"/><stop offset=".395" stop-color="#7BBBEF"/><stop offset=".404" stop-color="#7BBAEE"/><stop offset=".412" stop-color="#7ABAEE"/><stop offset=".421" stop-color="#79B9EE"/><stop offset=".43" stop-color="#78B9EE"/><stop offset=".439" stop-color="#77B8EE"/><stop offset=".447" stop-color="#76B8ED"/><stop offset=".456" stop-color="#75B7ED"/><stop offset=".465" stop-color="#74B7ED"/><stop offset=".474" stop-color="#73B6ED"/><stop offset=".482" stop-color="#72B5EC"/><stop offset=".491" stop-color="#71B5EC"/><stop offset=".5" stop-color="#70B4EC"/><stop offset=".509" stop-color="#6FB4EC"/><stop offset=".518" stop-color="#6EB3EB"/><stop offset=".526" stop-color="#6DB2EB"/><stop offset=".535" stop-color="#6CB2EB"/><stop offset=".544" stop-color="#6BB1EB"/><stop offset=".553" stop-color="#6AB0EA"/><stop offset=".561" stop-color="#69B0EA"/><stop offset=".57" stop-color="#67AFEA"/><stop offset=".579" stop-color="#66AEE9"/><stop offset=".588" stop-color="#65AEE9"/><stop offset=".596" stop-color="#64ADE9"/><stop offset=".605" stop-color="#63ACE9"/><stop offset=".614" stop-color="#61ACE8"/><stop offset=".623" stop-color="#60ABE8"/><stop offset=".632" stop-color="#5FAAE8"/><stop offset=".64" stop-color="#5EA9E7"/><stop offset=".649" stop-color="#5CA9E7"/><stop offset=".658" stop-color="#5BA8E7"/><stop offset=".667" stop-color="#5AA7E6"/><stop offset=".675" stop-color="#58A6E6"/><stop offset=".684" stop-color="#57A6E6"/><stop offset=".693" stop-color="#56A5E5"/><stop offset=".702" stop-color="#54A4E5"/><stop offset=".711" stop-color="#53A3E5"/><stop offset=".719" stop-color="#51A2E4"/><stop offset=".728" stop-color="#50A2E4"/><stop offset=".737" stop-color="#4FA1E4"/><stop offset=".746" stop-color="#4DA0E3"/><stop offset=".754" stop-color="#4C9FE3"/><stop offset=".763" stop-color="#4A9EE3"/><stop offset=".772" stop-color="#499DE2"/><stop offset=".781" stop-color="#479CE2"/><stop offset=".789" stop-color="#469BE2"/><stop offset=".798" stop-color="#449BE1"/><stop offset=".807" stop-color="#439AE1"/><stop offset=".816" stop-color="#4199E0"/><stop offset=".825" stop-color="#3F98E0"/><stop offset=".833" stop-color="#3E97E0"/><stop offset=".842" stop-color="#3C96DF"/><stop offset=".851" stop-color="#3B95DF"/><stop offset=".86" stop-color="#3994DE"/><stop offset=".868" stop-color="#3793DE"/><stop offset=".877" stop-color="#3692DE"/><stop offset=".886" stop-color="#3491DD"/><stop offset=".895" stop-color="#3290DD"/><stop offset=".904" stop-color="#308FDC"/><stop offset=".912" stop-color="#2F8EDC"/><stop offset=".921" stop-color="#2D8DDC"/><stop offset=".93" stop-color="#2B8CDB"/><stop offset=".939" stop-color="#298BDB"/><stop offset=".947" stop-color="#288ADA"/><stop offset=".956" stop-color="#2689DA"/><stop offset=".965" stop-color="#2488D9"/><stop offset=".974" stop-color="#2287D9"/><stop offset=".982" stop-color="#2086D8"/><stop offset=".991" stop-color="#1E85D8"/><stop offset="1" stop-color="#1D84D8"/></linearGradient><clipPath id="clip7"><rect width="177" height="152" x="-6.5" y="-6.5"/></clipPath><clipPath id="clip8"><rect width="165" height="139" x="0" y="0"/></clipPath><linearGradient id="fill9" x1="533.266" x2="746.734" y1="249.799" y2="504.201" gradientUnits="userSpaceOnUse" spreadMethod="reflect"><stop offset="0" stop-color="#F2F2F2"/><stop offset=".18" stop-color="#F2F2F2"/><stop offset=".91" stop-color="#D9D9D9"/><stop offset="1" stop-color="#D9D9D9"/></linearGradient><clipPath id="clip10"><rect width="87" height="93" x="-6" y="-6"/></clipPath><clipPath id="clip11"><rect width="77" height="82" x="0" y="0"/></clipPath><linearGradient id="fill12" x1="590.066" x2="638.934" y1="382.497" y2="423.503" gradientUnits="userSpaceOnUse" spreadMethod="reflect"><stop offset="0" stop-color="#775CFE"/><stop offset=".18" stop-color="#775CFE"/><stop offset=".83" stop-color="#2473DC"/><stop offset="1" stop-color="#2473DC"/></linearGradient><clipPath id="clip13"><rect width="106" height="99" x="-6" y="-6"/></clipPath><clipPath id="clip14"><rect width="96" height="90" x="0" y="0"/></clipPath><linearGradient id="fill15" x1="584.404" x2="637.596" y1="324.304" y2="387.696" gradientUnits="userSpaceOnUse" spreadMethod="reflect"><stop offset="0" stop-color="#C45DD5"/><stop offset=".18" stop-color="#C45DD5"/><stop offset=".69" stop-color="#A266E4"/><stop offset="1" stop-color="#A266E4"/></linearGradient><clipPath id="clip16"><rect width="99" height="96" x="-6" y="-6"/></clipPath><clipPath id="clip17"><rect width="89" height="84" x="0" y="0"/></clipPath><linearGradient id="fill18" x1="627.05" x2="689.95" y1="390.842" y2="427.158" gradientUnits="userSpaceOnUse" spreadMethod="reflect"><stop offset="0" stop-color="#61A2F9"/><stop offset=".18" stop-color="#61A2F9"/><stop offset=".91" stop-color="#3159D7"/><stop offset="1" stop-color="#3159D7"/></linearGradient><clipPath id="clip19"><rect width="109" height="115" x="-6" y="-6"/></clipPath><clipPath id="clip20"><rect width="100" height="104" x="0" y="0"/></clipPath><linearGradient id="fill21" x1="638.037" x2="697.963" y1="319.291" y2="390.709" gradientUnits="userSpaceOnUse" spreadMethod="reflect"><stop offset="0" stop-color="#8A66FE"/><stop offset=".19" stop-color="#8A66FE"/><stop offset="1" stop-color="#2473DC"/></linearGradient></defs><g clip-path="url(#clip5)" transform="translate(-476 -225)"><path fill="url(#fill6)" fill-rule="evenodd" d="M599.788 226 680.212 226C694.454 226 706 237.6 706 251.91L706 317 689.583 317 689.583 256.734C689.583 247.532 682.158 240.072 673 240.072L607 240.072C597.842 240.072 590.417 247.532 590.417 256.734L590.417 317 574 317 574 251.91C574 237.6 585.545 226 599.788 226Z"/><g clip-path="url(#clip7)" filter="url(#fx0)" transform="matrix(2 0 0 2 475 234)"><g clip-path="url(#clip8)"><path fill="red" fill-rule="evenodd" d="M31.766 16.5 133.234 16.5C141.665 16.5 148.5 23.3348 148.5 31.7661L148.5 90.9873C148.5 108.391 134.391 122.5 116.987 122.5L48.0127 122.5C30.6087 122.5 16.5 108.391 16.5 90.9873L16.5 31.7661C16.5 23.3348 23.3348 16.5 31.766 16.5Z"/></g></g><path fill="url(#fill9)" fill-rule="evenodd" d="M538.532 271 741.468 271C758.33 271 772 284.67 772 301.532L772 419.975C772 454.783 743.783 483 708.975 483L571.025 483C536.217 483 508 454.783 508 419.975L508 301.532C508 284.67 521.67 271 538.532 271Z"/><g clip-path="url(#clip10)" filter="url(#fx1)" transform="translate(576 366)"><g clip-path="url(#clip11)"><path fill="red" fill-rule="evenodd" d="M60 65 24.1668 65C20.2087 65 17 61.7604 17 57.7641L17 18.5559C24.7213 17.6295 27.8481 16.6309 35.0147 17.1358 42.1814 17.6408 52.2632 19.8124 60 21.5858L60 65Z"/></g></g><path fill="url(#fill12)" fill-rule="evenodd" d="M636 427 600.167 427C596.209 427 593 423.76 593 419.764L593 380.556C600.721 379.629 603.848 378.631 611.015 379.136 618.181 379.641 628.263 381.812 636 383.586L636 427Z"/><g clip-path="url(#clip13)" filter="url(#fx2)" transform="translate(563 315)"><g clip-path="url(#clip14)"><path fill="red" fill-rule="evenodd" d="M17 73 17 26.3335C17 21.1788 21.1822 17 26.3413 17L73.9138 17C76.8871 31.0757 79.1379 35.818 78.9934 45.1513 78.8489 54.4846 75.0291 63.7171 73.0469 73 59.5487 71.2024 55.7543 69.5568 46.0505 69.4048 36.2942 69.2519 26.6835 71.8016 17 73Z"/></g></g><path fill="url(#fill15)" fill-rule="evenodd" d="M580 384 580 337.333C580 332.179 584.182 328 589.341 328L636.914 328C639.887 342.076 642.138 346.818 641.993 356.151 641.849 365.485 638.029 374.717 636.047 384 622.549 382.202 618.754 380.557 609.05 380.405 599.294 380.252 589.683 382.802 580 384Z"/><g clip-path="url(#clip16)" filter="url(#fx3)" transform="translate(614 371)"><g clip-path="url(#clip17)"><path fill="red" fill-rule="evenodd" d="M71.9999 17.0001 71.9999 58.6666C71.9999 63.269 68.2604 67.0001 63.6475 67.0001L21.8865 67.0001C19.4439 54.6857 17.0739 53.729 17.0012 42.3714 16.9251 30.4576 20.2581 25.4572 21.8865 17.0001L71.9999 17.0001Z"/></g></g><path fill="url(#fill18)" fill-rule="evenodd" d="M686 384 686 425.667C686 430.269 682.26 434 677.648 434L635.886 434C633.444 421.686 631.074 420.729 631.001 409.371 630.925 397.458 634.258 392.457 635.886 384L686 384Z"/><g clip-path="url(#clip19)" filter="url(#fx4)" transform="translate(618 307)"><g clip-path="url(#clip20)"><path fill="red" fill-rule="evenodd" d="M17.04 16.98 71.9731 16.98C78.041 16.98 82.96 21.8504 82.96 27.8583L82.96 82.2481C66.2199 84.5074 60.3967 87.9899 49.4797 86.7666L17.04 82.2481C18.9847 67.2815 20.8908 63.1929 20.9294 52.315 20.9712 40.5366 18.3365 28.7583 17.04 16.98Z"/></g></g><path fill="url(#fill21)" fill-rule="evenodd" d="M636 321 689.333 321C695.224 321 700 325.728 700 331.561L700 384.367C683.747 386.561 678.094 389.942 667.495 388.754L636 384.367C637.888 369.836 639.739 365.867 639.776 355.306 639.817 343.871 637.259 332.435 636 321Z"/></g></svg>